<svg xmlns="http://www.w3.org/2000/svg" width="110" height="24" viewBox="0 0 110 24" fill="none"><path d="M8.39014 5.51318C5.59368 7.07039 4.19743 10.1637 4.66391 13.1493L15.8616 13.1706L16.2614 15.4139L0.465314 15.3811C0.20138 14.4769 0.0466977 13.5583 0 12.6416L2.2581 11.787L2.60429 9.42077L0.692327 7.95288C1.0046 7.08375 1.41671 6.24803 1.92722 5.46549L4.25196 6.0983L5.92404 4.39085L5.24289 2.07831C5.63662 1.81073 6.05125 1.55921 6.48878 1.33284C6.88958 1.12876 7.29404 0.949604 7.70344 0.791411L9.21072 2.67344L11.5675 2.27472L12.3756 0C13.3093 0.0315491 14.2364 0.166556 15.1311 0.408013L15.2418 2.81767L17.3809 3.88324L19.374 2.51755C20.0982 3.08205 20.7677 3.72998 21.3574 4.46269L20.1175 6.33878L16.8078 6.3321C14.5154 4.39172 11.171 3.96465 8.39014 5.51318Z" fill="black"></path><path d="M18.7217 21.9502C18.3331 22.2101 17.9285 22.4536 17.5054 22.6704C17.0955 22.8836 16.6752 23.0672 16.252 23.226L14.7511 21.3413L12.393 21.7325L11.5761 24C10.6435 23.9695 9.72221 23.8283 8.82927 23.5862L8.72666 21.177L6.59065 20.1052L4.59325 21.4619C3.89235 20.9145 3.24367 20.2839 2.66958 19.574L3.97021 17.5919L7.11808 17.5984C9.41216 19.5968 12.8026 20.0514 15.6157 18.4849C18.3917 16.939 19.7881 13.8794 19.3518 10.9142L7.58539 10.8944L7.99713 8.65111L23.5451 8.66197C23.8051 9.56767 23.9551 10.4873 24 11.4044L21.7397 12.2523L21.3832 14.6168L23.291 16.0898C22.9746 16.9614 22.5606 17.7966 22.0491 18.5754L19.7255 17.9308L18.0435 19.6343L18.7221 21.95" fill="black"></path><path d="M35.8764 5.85833C34.7162 6.41137 34.4305 7.84753 35.4403 8.70576C36.265 9.40815 37.463 9.68304 38.7888 10.0272C40.5312 10.4796 42.5745 10.8865 44.3408 11.4699C45.6547 11.9038 47.1806 12.8746 47.7932 14.1582C48.4826 15.603 48.396 17.5284 47.4469 18.8628C46.4631 20.2481 44.344 20.8888 42.633 21.102C40.8234 21.3278 38.9381 21.33 36.9771 21.1085C33.5929 20.7275 30.4879 19.1539 30.5452 15.261C30.5458 15.2263 30.5599 15.1931 30.5846 15.1687C30.6092 15.1442 30.6425 15.1303 30.6773 15.1301L33.7217 15.1268C33.8443 15.1268 33.9172 15.1871 33.9403 15.3076C34.003 15.6387 34.0149 16.0218 34.1437 16.326C34.8818 18.0673 37.213 18.4494 38.8786 18.4504C39.2574 18.4515 39.7066 18.5781 40.134 18.5132C41.6384 18.2849 44.5832 18.6204 44.778 16.4288C44.9144 14.8898 43.3354 14.1474 42.186 13.7946C40.8411 13.3819 39.4861 13.0009 38.121 12.6517C35.5961 12.0056 31.6654 11.0348 31.4478 7.88108C31.0777 2.52389 38.7542 2.46112 42.1633 2.88644C45.1979 3.26524 48.0519 4.69707 47.9988 8.22091C47.9981 8.29811 47.9592 8.33671 47.882 8.33671H44.7402C44.686 8.33683 44.6338 8.31631 44.5942 8.27932C44.5546 8.24233 44.5305 8.19165 44.5269 8.13758C44.4122 6.41678 43.0973 5.70898 41.5756 5.4395C39.8667 5.13538 37.5096 5.08019 35.8764 5.85833Z" fill="black"></path><path d="M53.887 14.1841V20.9006C53.887 20.9196 53.8796 20.9377 53.8664 20.9511C53.8532 20.9645 53.8353 20.972 53.8166 20.972H50.9281C50.8733 20.972 50.8207 20.9503 50.7819 20.9115C50.7432 20.8727 50.7214 20.8202 50.7214 20.7653L50.7225 3.21755C50.7225 3.09561 50.7831 3.03465 50.9043 3.03465C54.8019 3.0332 58.6727 3.03284 62.5169 3.03356C65.2962 3.03356 68.4564 3.99461 69.1371 7.09637C69.4192 8.37993 69.364 9.57583 68.9715 10.6841C68.0549 13.2772 65.2583 14.1224 62.7853 14.1246C59.843 14.1275 56.8964 14.1278 53.9454 14.1257C53.9065 14.1257 53.887 14.1451 53.887 14.1841ZM53.8956 5.86259L53.8762 11.2631C53.8762 11.2726 53.8799 11.2816 53.8866 11.2883C53.8933 11.295 53.9024 11.2988 53.9119 11.2988L63.0213 11.3313C63.8473 11.3341 64.6404 11.0661 65.2262 10.5863C65.8119 10.1065 66.1423 9.45418 66.1447 8.77279L66.1468 8.43946C66.148 8.10204 66.0686 7.76764 65.9131 7.45536C65.7577 7.14308 65.5292 6.85904 65.2408 6.61945C64.9523 6.37986 64.6096 6.18942 64.2321 6.059C63.8546 5.92858 63.4498 5.86074 63.0408 5.85935L53.9314 5.82688C53.9219 5.82688 53.9128 5.83064 53.9061 5.83734C53.8994 5.84404 53.8956 5.85312 53.8956 5.86259Z" fill="black"></path><path d="M80.4564 21.2549C75.4282 21.4464 70.9076 19.454 70.899 13.7602C70.8932 10.2075 70.8932 6.65479 70.899 3.10209C70.899 3.06168 70.9192 3.04148 70.9596 3.04148L74.0797 3.03174C74.162 3.03174 74.2031 3.07286 74.2031 3.15512C74.1873 6.412 74.1898 9.68368 74.2107 12.9701C74.2158 13.7046 74.2688 14.2739 74.3698 14.678C75.188 17.9442 78.6166 18.8338 81.5841 18.2397C83.4467 17.8663 84.9164 16.7094 85.4099 14.8414C85.5073 14.4727 85.5564 13.9503 85.5571 13.2743C85.5622 9.96542 85.5633 6.61114 85.5604 3.21139C85.5604 3.16518 85.5786 3.12086 85.6111 3.08818C85.6436 3.05551 85.6876 3.03715 85.7335 3.03715L88.7444 3.03499C88.8396 3.03499 88.8872 3.08224 88.8872 3.17676C88.888 6.73307 88.8901 10.32 88.8937 13.9377C88.8959 16.5524 87.7714 18.8436 85.4164 20.0979C83.872 20.9204 82.2248 21.1878 80.4564 21.2549Z" fill="black"></path><path d="M102.976 12.8684C105.244 13.4041 105.972 14.6822 107.053 16.6703C107.813 18.0693 108.561 19.459 109.296 20.8392C109.304 20.8529 109.307 20.8682 109.307 20.8837C109.306 20.8991 109.302 20.9143 109.294 20.9275C109.286 20.9408 109.275 20.9518 109.261 20.9595C109.248 20.9671 109.233 20.9712 109.217 20.9712L105.745 20.9723C105.719 20.9724 105.693 20.9653 105.67 20.952C105.648 20.9387 105.629 20.9195 105.617 20.8966C104.594 18.9947 103.579 17.1 102.573 15.2125C101.939 14.022 101.05 13.8684 99.6848 13.8619C97.7749 13.8525 95.8637 13.8518 93.951 13.8597C93.9357 13.8597 93.9211 13.8658 93.9104 13.8765C93.8996 13.8873 93.8936 13.9019 93.8936 13.9171V20.8609C93.8936 20.8904 93.8818 20.9188 93.8609 20.9397C93.84 20.9606 93.8117 20.9723 93.7821 20.9723H90.8232C90.7778 20.9723 90.755 20.9496 90.755 20.9041V3.19511C90.755 3.0876 90.8088 3.03385 90.9163 3.03385C94.9964 3.03169 99.1004 3.03493 103.228 3.04359C106.073 3.05009 108.854 4.13451 109.274 7.34125C109.561 9.54149 108.559 11.3056 106.498 12.1735C105.698 12.5112 104.967 12.5967 104.12 12.7277C103.801 12.7774 103.357 12.7374 102.977 12.8197C102.905 12.8355 102.904 12.8518 102.976 12.8684ZM93.8871 5.93864L93.8958 11.2287C93.8958 11.2534 93.9056 11.2771 93.923 11.2945C93.9405 11.312 93.9641 11.3218 93.9888 11.3218L103.201 11.3056C103.593 11.3049 103.981 11.2371 104.343 11.1061C104.705 10.975 105.034 10.7832 105.311 10.5417C105.587 10.3002 105.807 10.0137 105.956 9.69856C106.106 9.38339 106.182 9.04575 106.182 8.7049V8.41918C106.18 7.73094 105.865 7.07145 105.304 6.58577C104.744 6.10009 103.984 5.828 103.192 5.82933L93.9802 5.84557C93.9555 5.84557 93.9318 5.85537 93.9144 5.87283C93.8969 5.89028 93.8871 5.91396 93.8871 5.93864Z" fill="black"></path></svg>
